IKResults
version=1
nRows=4
nColumns=63
inDegrees=yes

Units are S.I. units (second, meters, Newtons, ...)
If the header above contains a line with 'inDegrees', this indicates whether rotational values are in degrees (yes) or radians (no).

endheader
time	pelvis_tilt	pelvis_list	pelvis_rotation	pelvis_tx	pelvis_ty	pelvis_tz	hip_flexion_r	hip_adduction_r	hip_rotation_r	knee_angle_r	knee_angle_r_beta	ankle_angle_r	subtalar_angle_r	mtp_angle_r	hip_flexion_l	hip_adduction_l	hip_rotation_l	knee_angle_l	knee_angle_l_beta	ankle_angle_l	subtalar_angle_l	mtp_angle_l	L5_S1_Flex_Ext	L5_S1_Lat_Bending	L5_S1_axial_rotation	L4_L5_Flex_Ext	L4_L5_Lat_Bending	L4_L5_axial_rotation	L3_L4_Flex_Ext	L3_L4_Lat_Bending	L3_L4_axial_rotation	L2_L3_Flex_Ext	L2_L3_Lat_Bending	L2_L3_axial_rotation	L1_L2_Flex_Ext	L1_L2_Lat_Bending	L1_L2_axial_rotation	L1_T12_Flex_Ext	L1_T12_Lat_Bending	L1_T12_axial_rotation	Abs_r3	Abs_r2	Abs_r1	Abs_t1	Abs_t2	neck_flexion	neck_bending	neck_rotation	arm_flex_r	arm_add_r	arm_rot_r	elbow_flex_r	pro_sup_r	wrist_flex_r	wrist_dev_r	arm_flex_l	arm_add_l	arm_rot_l	elbow_flex_l	pro_sup_l	wrist_flex_l	wrist_dev_l
      2.03333333	     -4.27949412	    118.46703803	   -109.53001653	     -0.41372850	      0.20739670	     -0.04097310	     43.72562417	     -7.18714706	     19.66838314	     21.03358830	      0.36710537	      0.00000000	      0.00000000	      0.00000000	     37.04217605	    -10.27759944	    -37.26925720	     13.91681226	      0.24289420	      0.00000000	      0.00000000	      0.00000000	      4.80805742	     -1.09920282	     -1.03343940	      8.92904344	     -1.46193974	     -1.09802936	      7.89915754	     -2.67260173	     -1.09802936	      5.49512883	     -2.67260173	     -0.90425948	      4.46476212	     -2.24149438	     -0.83966951	      2.74732401	     -1.70266516	     -0.77507955	     34.34347337	    -12.43440209	     -5.74767991	      0.00000000	      0.00000000	      2.66234716	     23.86734660	     44.76145539	     71.20658599	    -39.61782706	    145.74175750	      0.14599675	     89.99559364	      0.00000000	      0.00000000	    -79.89207923	    -61.86963443	   -137.71170188	     45.56420238	     89.99559364	      0.00000000	      0.00000000
      2.06666667	     -5.49686561	    119.40878741	   -110.39211371	     -0.41462019	      0.21009616	     -0.04112358	     44.11838002	     -4.84260535	     19.65903652	     20.60313153	      0.35959248	      0.00000000	      0.00000000	      0.00000000	     37.90240285	    -11.12091538	    -37.18265602	     12.58654001	      0.21967656	      0.00000000	      0.00000000	      0.00000000	      5.01111245	     -1.04202485	     -0.72665285	      9.30613693	     -1.38589305	     -0.77206865	      8.23275664	     -2.53357923	     -0.77206865	      5.72720042	     -2.53357923	     -0.63582124	      4.65331902	     -2.12489708	     -0.59040544	      2.86334965	     -1.61409650	     -0.54498964	     35.79387512	    -11.78759354	     -4.04142515	      0.00000000	      0.00000000	      1.76170247	     23.81869118	     44.76534921	     71.19351334	    -39.24951896	    146.30061698	      0.14797611	     89.99559364	      0.00000000	      0.00000000	    -79.58457442	    -62.40886247	   -138.03823274	     44.86903229	     89.99559364	      0.00000000	      0.00000000
      2.10000000	     -6.46382489	    120.27630438	   -110.97442578	     -0.41486304	      0.21295953	     -0.04093887	     44.28115267	     -2.84648053	     19.68118479	     20.31223751	      0.35451542	      0.00000000	      0.00000000	      0.00000000	     38.83273409	    -11.77444747	    -37.11395819	     11.59612013	      0.20239048	      0.00000000	      0.00000000	      0.00000000	      5.17929358	     -0.99734700	     -0.52527213	      9.61846611	     -1.32647151	     -0.55810163	      8.50906142	     -2.42494950	     -0.55810163	      5.91941463	     -2.42494950	     -0.45961311	      4.80949202	     -2.03379000	     -0.42678360	      2.95944835	     -1.54489050	     -0.39395409	     36.99517612	    -11.28218874	     -2.92140598	      0.00000000	      0.00000000	      1.03099837	     23.77850927	     44.76754152	     71.19525314	    -38.82687328	    146.67414893	      0.14970291	     89.99559364	      0.00000000	      0.00000000	    -79.21918551	    -62.71590344	   -138.49732838	     44.39956312	     89.99559364	      0.00000000	      0.00000000
      2.13333333	     -7.79236576	    121.23674864	   -112.17158363	     -0.41609001	      0.21567338	     -0.04027930	     44.74437671	     -0.47607638	     19.74839341	     19.87815566	      0.34693927	      0.00000000	      0.00000000	      0.00000000	     39.50726154	    -12.87220735	    -37.00767820	     10.90956544	      0.19040784	      0.00000000	      0.00000000	      0.00000000	      5.40190624	     -0.92553533	     -0.18075832	     10.03188009	     -1.23096199	     -0.19205571	      8.87479177	     -2.25034660	     -0.19205571	      6.17383865	     -2.25034660	     -0.15816353	      5.01621014	     -1.88735164	     -0.14686613	      3.08664923	     -1.43365422	     -0.13556874	     38.58527611	    -10.46984074	     -1.00532354	      0.00000000	      0.00000000	      0.00860605	     23.88829174	     44.77342363	     71.08021975	    -38.37160614	    147.31209450	      0.15118745	     89.99559364	      0.00000000	      0.00000000	    -79.22593447	    -62.28200568	   -138.02478824	     44.68654841	     89.99559364	      0.00000000	      0.00000000
